<svg width="121" height="120" viewBox="0 0 121 120" fill="none" xmlns="http://www.w3.org/2000/svg">
<circle cx="60.5" cy="60" r="60" fill="#FCEFEF"/>
<path d="M66.5264 27.457V55.5457C66.5264 58.5248 66.3809 61.4548 66.0899 64.3357C65.7988 67.1839 65.427 70.2121 64.9742 73.4203H56.8253C56.3725 70.2121 56.0007 67.1839 55.7096 64.3357C55.4186 61.4548 55.2731 58.5248 55.2731 55.5457V27.457H66.5264ZM53.3813 85.6843C53.3813 84.6695 53.5592 83.7037 53.9149 82.7871C54.303 81.8704 54.8204 81.0847 55.4671 80.43C56.1462 79.7752 56.9384 79.2514 57.8439 78.8586C58.7493 78.4657 59.7194 78.2693 60.7542 78.2693C61.7567 78.2693 62.7106 78.4657 63.6161 78.8586C64.5215 79.2514 65.2976 79.7752 65.9443 80.43C66.6234 81.0847 67.157 81.8704 67.545 82.7871C67.9331 83.7037 68.1271 84.6695 68.1271 85.6843C68.1271 86.7319 67.9331 87.7141 67.545 88.6307C67.157 89.5146 66.6234 90.2839 65.9443 90.9387C65.2976 91.5934 64.5215 92.1009 63.6161 92.461C62.7106 92.8538 61.7567 93.0503 60.7542 93.0503C59.7194 93.0503 58.7493 92.8538 57.8439 92.461C56.9384 92.1009 56.1462 91.5934 55.4671 90.9387C54.8204 90.2839 54.303 89.5146 53.9149 88.6307C53.5592 87.7141 53.3813 86.7319 53.3813 85.6843Z" fill="#C92B2B"/>
</svg>
